<?xml version="1.0" encoding="UTF-8"?>
<svg version="1.1" xmlns="http://www.w3.org/2000/svg" width="927" height="287">
	<path d="M0 0 C3.25987594 1.72545419 6.1318939 3.77235578 8.875 6.25 C9.57625 5.651875 10.2775 5.05375 11 4.4375 C19.69438836 -2.17779549 28.31710117 -2.50491712 38.875 -1.75 C45.13166088 -0.34872217 49.13477616 2.98182966 53.3671875 7.6640625 C57.68342978 15.06652982 58.3263338 22.97106184 58.2734375 31.3671875 C58.27630768 32.38676544 58.27917786 33.40634338 58.28213501 34.45681763 C58.28416208 36.59296226 58.27872809 38.72912603 58.26611328 40.86523438 C58.24994001 44.13713631 58.26605976 47.40782174 58.28515625 50.6796875 C58.28317553 52.76302355 58.27933541 54.84635885 58.2734375 56.9296875 C58.27951019 57.90573944 58.28558289 58.88179138 58.2918396 59.88742065 C58.27765488 61.25001511 58.27765488 61.25001511 58.26318359 62.64013672 C58.26079681 63.43604218 58.25841003 64.23194763 58.25595093 65.05197144 C57.77436339 67.83065782 56.7891109 69.20285937 54.875 71.25 C51.21621638 72.44308162 49.57502308 72.57667744 46.0625 70.9375 C43.875 69.25 43.875 69.25 42.875 67.25 C42.77746251 65.84226362 42.73952371 64.43013996 42.7331543 63.01904297 C42.72260262 61.7066011 42.72260262 61.7066011 42.71183777 60.36764526 C42.70767349 59.4187442 42.70350922 58.46984314 42.69921875 57.4921875 C42.67600818 55.48436466 42.65189036 53.47655214 42.62695312 51.46875 C42.59192863 48.30233991 42.56254812 45.13630621 42.54907227 41.96972656 C42.53352214 38.91424728 42.49325336 35.85987225 42.44921875 32.8046875 C42.45112717 31.86793182 42.45303558 30.93117615 42.45500183 29.96603394 C42.3471803 24.12167895 41.6006312 18.95924604 37.875 14.25 C33.36793004 11.53477926 29.00117687 11.74154994 23.875 12.25 C20.10705796 13.56058854 18.63163061 15.32604557 16.77368164 18.7175293 C14.35832135 23.71378749 14.32315623 28.29990448 14.37109375 33.76953125 C14.36167252 34.74991867 14.35225128 35.73030609 14.34254456 36.74040222 C14.31403803 39.84798482 14.31081273 42.95479755 14.3125 46.0625 C14.30889455 49.1879415 14.29943078 52.3128308 14.27174377 55.43815613 C14.25492363 57.37681544 14.25210448 59.31565776 14.26475525 61.25434875 C14.25787186 62.12923447 14.25098846 63.00412018 14.24389648 63.90551758 C14.24485825 64.67414627 14.24582001 65.44277496 14.24681091 66.23469543 C13.77230044 68.80665629 12.92158996 69.66479714 10.875 71.25 C7.21871434 72.36278259 5.55960779 72.56948363 2.0625 70.9375 C-0.125 69.25 -0.125 69.25 -1.125 67.25 C-1.22754587 65.83713193 -1.27082475 64.41970849 -1.28271484 63.00317383 C-1.29297699 62.12498489 -1.30323914 61.24679596 -1.31381226 60.34199524 C-1.32111359 59.38995712 -1.32841492 58.43791901 -1.3359375 57.45703125 C-1.36401753 55.44465348 -1.39268206 53.4322838 -1.421875 51.41992188 C-1.46305735 48.24471358 -1.49994046 45.06965439 -1.52636719 41.89428711 C-1.55407346 38.83154977 -1.59995844 35.76950101 -1.6484375 32.70703125 C-1.65169037 31.76511429 -1.65494324 30.82319733 -1.65829468 29.85273743 C-1.76238516 24.23586941 -2.44694412 20.21973577 -5.125 15.25 C-8.20193583 12.35954513 -10.97787813 12.00875811 -15.0625 11.8125 C-19.81645644 11.98228416 -22.59214044 12.88947505 -26.125 16.25 C-29.26034429 22.03605875 -29.55275543 26.91368648 -29.53125 33.41796875 C-29.54208618 34.3752034 -29.55292236 35.33243805 -29.56408691 36.31867981 C-29.60977224 40.39038408 -29.62146203 44.46202076 -29.63623047 48.53393555 C-29.65190611 51.51634467 -29.68488852 54.49821972 -29.71875 57.48046875 C-29.71572876 58.40031052 -29.71270752 59.32015228 -29.70959473 60.26786804 C-29.78425909 66.60381627 -29.78425909 66.60381627 -31.47070312 69.80200195 C-33.96168311 71.98234467 -35.85105724 72.18452114 -39.125 72.25 C-41.45231556 71.11220128 -43.29340714 70.08159286 -45.125 68.25 C-45.23491217 66.21074955 -45.27412471 64.16766332 -45.28613281 62.12548828 C-45.29574036 60.81387726 -45.3053479 59.50226624 -45.31524658 58.15090942 C-45.32009414 56.70737887 -45.32437308 55.26384632 -45.328125 53.8203125 C-45.33387411 52.34919227 -45.33963187 50.87807207 -45.34539795 49.4069519 C-45.35591751 46.31833546 -45.36175379 43.22974513 -45.36523438 40.14111328 C-45.37071875 36.18078368 -45.39474116 32.22079798 -45.42320633 28.26057625 C-45.44181912 25.22027577 -45.44703759 22.1800583 -45.44857025 19.13970566 C-45.45160081 17.6796366 -45.45964295 16.21956914 -45.47275543 14.75955582 C-45.48978438 12.71753975 -45.48609545 10.67538255 -45.48144531 8.63330078 C-45.48509094 7.47049591 -45.48873657 6.30769104 -45.49249268 5.10964966 C-45.125 2.25 -45.125 2.25 -43.74407959 0.36935425 C-41.55141314 -1.14655054 -40.07492376 -1.0521706 -37.4375 -0.9375 C-36.22513672 -0.89689453 -36.22513672 -0.89689453 -34.98828125 -0.85546875 C-34.37339844 -0.82066406 -33.75851562 -0.78585938 -33.125 -0.75 C-32.465 0.57 -31.805 1.89 -31.125 3.25 C-30.50496094 2.8890625 -29.88492188 2.528125 -29.24609375 2.15625 C-20.07662892 -2.64870974 -9.78680249 -4.09414571 0 0 Z " fill="#FDFDFD" transform="translate(616.125,119.75)"/>
	<path d="M0 0 C1.010625 0.680625 2.02125 1.36125 3.0625 2.0625 C5 4 5 4 6 6.4375 C6 9.92772965 5.32072064 11.38918928 3 14 C-1.19534793 15.14141872 -3.23795957 15.37961423 -7.17578125 13.41796875 C-8.21089844 12.68191406 -9.24601562 11.94585937 -10.3125 11.1875 C-19.31194546 5.18399396 -27.38684985 3.95959524 -38 6 C-47.68053148 8.44591815 -55.36421888 14.71107009 -60.9375 22.9375 C-67.01244344 33.90255749 -67.70263639 45.85930878 -64.375 57.875 C-61.00431914 67.58633226 -54.61852251 75.0288865 -45.79296875 80.32421875 C-36.85333366 84.54941942 -26.3398652 84.46938121 -17.0625 81.3125 C-13.67660524 79.91801297 -10.76625971 78.25216726 -7.75 76.1875 C-4.70784395 74.15313639 -4.04757264 74 -0.125 74 C3 75 3 75 5 78 C5.4375 80.875 5.4375 80.875 5 84 C-3.1814864 93.54254699 -15.55435915 97.2531997 -27.66796875 98.2109375 C-42.00809665 98.74895096 -54.36773841 93.98774016 -65.25 84.8125 C-75.62972041 74.96000349 -81.05888324 62.32425736 -82.23828125 48.1328125 C-82.63118384 32.209918 -78.22894814 17.4471566 -67.1875 5.625 C-48.79997274 -11.45166308 -20.73991373 -14.59904542 0 0 Z " fill="#FDFDFD" transform="translate(142,95)"/>
	<path d="M0 0 C0.7734375 0.00128906 1.546875 0.00257812 2.34375 0.00390625 C5.13508683 0.56520768 5.83218208 1.11893293 7.5 3.4375 C7.83079338 6.01567111 7.9883563 8.36670167 8.01171875 10.94921875 C8.02966995 11.67744339 8.04762115 12.40566803 8.06611633 13.15596008 C8.12024213 15.47891471 8.1541208 17.80166366 8.1875 20.125 C8.22067125 21.70120051 8.25516073 23.27737388 8.29101562 24.85351562 C8.3759693 28.71469536 8.44276876 32.57581387 8.5 36.4375 C9.42014893 35.80279785 10.34029785 35.1680957 11.28833008 34.51416016 C19.2653036 29.35626302 28.34843398 29.72239247 37.5 30.4375 C45.63222293 32.21742297 52.39160014 36.85995593 57.0703125 43.75 C60.02419493 48.88131577 61.61028501 53.11464561 61.66113281 59.06665039 C61.67074036 59.97761978 61.6803479 60.88858917 61.69024658 61.8271637 C61.69449646 62.80330124 61.69874634 63.77943878 61.703125 64.78515625 C61.70882507 65.79339951 61.71452515 66.80164276 61.72039795 67.84043884 C61.72983403 69.96954299 61.7363764 72.09866164 61.74023438 74.2277832 C61.74997405 77.49130409 61.78102446 80.75420407 61.8125 84.01757812 C61.81902696 86.08593376 61.82427863 88.15429389 61.828125 90.22265625 C61.8404718 91.20081802 61.8528186 92.1789798 61.86553955 93.18678284 C61.86253845 94.09460007 61.85953735 95.0024173 61.85644531 95.93774414 C61.86191376 97.13543175 61.86191376 97.13543175 61.86749268 98.35731506 C61.40629631 100.96790785 60.56554836 101.82492175 58.5 103.4375 C55.5157298 104.45843454 53.87948657 104.53457796 50.8125 103.75 C48.09408461 102.20711559 47.64287278 101.28821816 46.5 98.4375 C46.2484436 96.45379639 46.2484436 96.45379639 46.24462891 94.34667969 C46.23766998 93.55195251 46.23071106 92.75722534 46.22354126 91.93841553 C46.22453827 91.08733215 46.22553528 90.23624878 46.2265625 89.359375 C46.20626569 87.54035852 46.18541476 85.72134815 46.1640625 83.90234375 C46.14151889 81.04763629 46.12501166 78.19317112 46.11914062 75.33837891 C46.10956406 72.57410318 46.07571883 69.81090643 46.0390625 67.046875 C46.04410797 66.20388855 46.04915344 65.3609021 46.05435181 64.49237061 C45.95994825 58.74601092 44.83336782 54.19955468 41.5 49.4375 C35.12502823 44.36354288 29.43053237 43.65744764 21.5 44.4375 C16.14963389 46.06741286 12.54815073 48.68238487 9.5 53.4375 C8.57627685 56.20866944 8.36656263 57.90682214 8.34228516 60.76953125 C8.33202301 61.64053467 8.32176086 62.51153809 8.31118774 63.40893555 C8.30388641 64.34648682 8.29658508 65.28403809 8.2890625 66.25 C8.2610048 68.23177925 8.23234042 70.21354998 8.203125 72.1953125 C8.16178234 75.32258972 8.12489749 78.44970608 8.09863281 81.57714844 C8.07109984 84.59343293 8.02524127 87.60899275 7.9765625 90.625 C7.97330963 91.56255127 7.97005676 92.50010254 7.96670532 93.46606445 C7.95013885 94.33706787 7.93357239 95.20807129 7.91650391 96.10546875 C7.90841705 96.87141357 7.9003302 97.6373584 7.89199829 98.42651367 C7.39340904 100.98432115 6.53825171 101.85495574 4.5 103.4375 C0.84371434 104.55028259 -0.81539221 104.75698363 -4.3125 103.125 C-6.5 101.4375 -6.5 101.4375 -7.5 99.4375 C-7.60914707 96.46859053 -7.65733837 93.52278169 -7.66113281 90.55322266 C-7.66609772 89.63276657 -7.67106262 88.71231049 -7.67617798 87.76396179 C-7.69081913 84.70982117 -7.6976047 81.65573249 -7.703125 78.6015625 C-7.70887465 76.48407998 -7.71463241 74.36659747 -7.72039795 72.24911499 C-7.73091337 67.8053971 -7.73675256 63.36169734 -7.74023438 58.91796875 C-7.74572154 53.21913695 -7.76975215 47.52054379 -7.79820633 41.82178688 C-7.81681372 37.44665829 -7.82203729 33.0715874 -7.82357025 28.69642258 C-7.82660138 26.5952359 -7.83464534 24.49405034 -7.84775543 22.39290237 C-7.86477684 19.4552714 -7.86294523 16.51822645 -7.85644531 13.58056641 C-7.8656601 12.70976944 -7.87487488 11.83897247 -7.8843689 10.94178772 C-7.84356837 5.06654916 -7.84356837 5.06654916 -6.11248779 1.89706421 C-4.00273607 -0.01260489 -2.81674049 -0.07041851 0 0 Z " fill="#FDFDFD" transform="translate(173.5,87.5625)"/>
	<path d="M0 0 C10.69380066 7.62345173 15.8339231 16.18254615 18 29 C18.42991156 34.20442581 18.39229707 39.42096978 18.33618164 44.63916016 C18.31225827 47.02409859 18.31568522 49.40793806 18.32226562 51.79296875 C18.31669741 53.32031914 18.30959296 54.84766488 18.30078125 56.375 C18.30169266 57.08229248 18.30260406 57.78958496 18.30354309 58.51831055 C18.25153424 62.12865353 18.18432962 65.03430241 16 68 C12.22693004 69.63736998 10.11999643 70.39822095 6.1875 69 C3.50519847 66.54761003 2.85307746 64.48986235 2 61 C1.53851563 61.39832031 1.07703125 61.79664063 0.6015625 62.20703125 C-8.06277436 69.24466455 -16.96003498 71.03819539 -28 70 C-36.60557639 68.60143634 -43.25080131 64.559615 -48.7890625 57.82421875 C-55.77518146 47.86125599 -58.3852059 36.96945949 -56.375 24.8125 C-54.25844623 16.17808198 -50.23508089 8.35448225 -43 3 C-29.53861947 -4.80830734 -14.42268996 -7.53454251 0 0 Z M-37.74609375 18.1640625 C-42.26695606 24.78339361 -43.046821 31.17376679 -42 39 C-39.8438238 45.83268281 -36.10199979 51.17332217 -30 55 C-24.18488812 57.76003673 -17.97260722 58.09160338 -11.75390625 56.3828125 C-5.33868129 53.55661203 -0.77366308 48.39309459 2.4375 42.25 C4.10004291 32.64419654 3.45442586 24.71308892 -1.625 16.3125 C-6.79035516 11.28307524 -11.78047536 8.69527078 -19.0625 8.4375 C-27.3017603 8.8353296 -32.70025156 11.64708921 -37.74609375 18.1640625 Z " fill="#FDFDFD" transform="translate(309,122)"/>
	<path d="M0 0 C8.36487159 5.97490828 12.99701216 13.64077151 15.5390625 23.4921875 C15.92964464 26.74829901 15.96116236 29.9575501 15.9375 33.234375 C15.94037018 34.12456329 15.94324036 35.01475159 15.94619751 35.93191528 C15.94822381 37.79576257 15.9427953 39.65963183 15.93017578 41.5234375 C15.91398602 44.38068534 15.93013155 47.23654328 15.94921875 50.09375 C15.9472383 51.91146145 15.94339874 53.72917204 15.9375 55.546875 C15.94357269 56.3999826 15.94964539 57.25309021 15.9559021 58.13204956 C15.88512651 64.05647156 15.88512651 64.05647156 14.19448853 66.18508911 C11.69088933 68.16189171 9.69514034 68.36594439 6.5390625 68.4921875 C3.7890625 67.4296875 3.7890625 67.4296875 1.5390625 65.4921875 C0.2265625 62.3046875 0.2265625 62.3046875 -0.4609375 59.4921875 C-0.93402344 59.89050781 -1.40710938 60.28882813 -1.89453125 60.69921875 C-10.76195162 67.8035263 -19.12567542 69.68110653 -30.4609375 68.4921875 C-40.24711891 66.34866928 -47.90312499 60.82890626 -53.4609375 52.4921875 C-59.06643645 41.52228633 -60.50811775 29.91980076 -56.7109375 17.9921875 C-55.09562384 13.70759665 -53.39679239 10.01521336 -50.4609375 6.4921875 C-49.8009375 6.4921875 -49.1409375 6.4921875 -48.4609375 6.4921875 C-48.22761719 5.89664063 -47.99429688 5.30109375 -47.75390625 4.6875 C-46.13836218 1.94449165 -44.51005427 0.96808736 -41.7734375 -0.6328125 C-40.94457031 -1.13039063 -40.11570312 -1.62796875 -39.26171875 -2.140625 C-26.79317834 -8.22708127 -11.6936307 -7.16466897 0 0 Z M-38.8359375 15.4921875 C-43.3076805 21.88752944 -44.93870059 27.74841344 -44.28515625 35.60546875 C-42.98379959 42.16483212 -39.59175954 48.13447563 -34.23046875 52.171875 C-28.12148171 55.61000125 -22.38336796 56.59230389 -15.4609375 55.4921875 C-9.31534518 53.68778216 -4.78431399 49.93796953 -1.4609375 44.4921875 C1.98258027 36.40966654 2.61395385 28.99840249 -0.42578125 20.69921875 C-3.11971292 14.95555312 -7.31177811 10.72486148 -13.125 8.15234375 C-23.16820035 5.314048 -32.4076054 7.20952883 -38.8359375 15.4921875 Z " fill="#FDFDFD" transform="translate(749.4609375,123.5078125)"/>
	<path d="M0 0 C7.10525349 5.86899143 11.01686725 12.34137278 12.7578125 21.38671875 C13.72081337 32.07082296 13.72081337 32.07082296 11.55827332 35.02583313 C9.12530095 36.86480517 7.58465922 36.74890531 4.55200195 36.72729492 C3.49112869 36.72706833 2.43025543 36.72684174 1.3372345 36.72660828 C-0.37850517 36.70338249 -0.37850517 36.70338249 -2.12890625 36.6796875 C-3.30105179 36.67544266 -4.47319733 36.67119781 -5.68086243 36.66682434 C-9.43070284 36.65000947 -13.18000907 36.61235107 -16.9296875 36.57421875 C-19.46939329 36.55917559 -22.00910749 36.54548655 -24.54882812 36.53320312 C-30.78013069 36.50009671 -37.01112094 36.44986903 -43.2421875 36.38671875 C-42.48443125 37.98552401 -41.71688231 39.57969008 -40.9453125 41.171875 C-40.51895508 42.06011963 -40.09259766 42.94836426 -39.65332031 43.86352539 C-36.64909415 49.23526888 -32.44336594 52.15771242 -26.7421875 54.26171875 C-17.88431886 56.75626186 -11.03775973 54.59556665 -3.16796875 50.23828125 C-0.05554805 48.86199786 2.52338046 49.66795607 5.7578125 50.38671875 C7.7578125 52.38671875 7.7578125 52.38671875 8.5078125 55.63671875 C7.7578125 59.38671875 7.7578125 59.38671875 5.875 61.07421875 C-4.85131993 67.79918422 -15.6763052 69.90310696 -28.19921875 67.91796875 C-38.36624498 65.52907308 -46.25373338 59.92609878 -52.2421875 51.38671875 C-58.31259767 40.51902396 -58.53658451 29.13127608 -55.28125 17.28125 C-51.70255208 7.31202007 -44.5594969 0.73361155 -35.234375 -3.8515625 C-24.08975869 -8.11273932 -9.64940257 -6.94286283 0 0 Z M-38.69921875 14.08203125 C-40.97563673 17.26206042 -40.97563673 17.26206042 -43.2421875 25.38671875 C-29.0521875 25.38671875 -14.8621875 25.38671875 -0.2421875 25.38671875 C-3.1875561 16.55061295 -4.70736835 12.03916014 -12.5546875 7.44921875 C-22.8342051 4.48732385 -31.04821419 6.77632143 -38.69921875 14.08203125 Z " fill="#FDFDFD" transform="translate(542.2421875,123.61328125)"/>
	<path d="M0 0 C2.375 2.5625 2.375 2.5625 4 5 C4.845625 4.38125 5.69125 3.7625 6.5625 3.125 C14.09648827 -2.38767435 24.14820694 -1.69168314 33 -1 C40.23004997 0.58246179 46.21009863 4.36920484 51 10 C54.66642972 15.91918629 57.09996978 21.53702796 57.16113281 28.53735352 C57.17074036 29.42830215 57.1803479 30.31925079 57.19024658 31.23719788 C57.19449646 32.19146164 57.19874634 33.1457254 57.203125 34.12890625 C57.20882507 35.11495346 57.21452515 36.10100067 57.22039795 37.1169281 C57.22983319 39.19895356 57.23637606 41.28099385 57.24023438 43.36303711 C57.24997447 46.55413538 57.28102575 49.74459875 57.3125 52.93554688 C57.31902695 54.95832951 57.32427863 56.98111674 57.328125 59.00390625 C57.3404718 59.96019424 57.3528186 60.91648224 57.36553955 61.90174866 C57.36253845 62.78954514 57.35953735 63.67734161 57.35644531 64.59204102 C57.36191376 65.76308128 57.36191376 65.76308128 57.36749268 66.95777893 C56.90068317 69.55192099 56.06524068 70.40604565 54 72 C50.34371434 73.11278259 48.68460779 73.31948363 45.1875 71.6875 C43 70 43 70 42 68 C41.89098978 64.960097 41.83855394 61.93905683 41.82421875 58.8984375 C41.80100664 57.02733267 41.77688876 55.1562389 41.75195312 53.28515625 C41.71694353 50.33602655 41.68755623 47.38729978 41.67407227 44.43798828 C41.65850826 41.59097261 41.61823053 38.74513765 41.57421875 35.8984375 C41.57612717 35.02730316 41.57803558 34.15616882 41.58000183 33.25863647 C41.4649485 27.44132913 40.39034123 22.81877595 37 18 C30.32070034 12.68382272 24.28393227 12.35350264 16 13 C12.52903143 14.27253856 12.52903143 14.27253856 10 16 C9.01 16.33 8.02 16.66 7 17 C5.83046584 19.42383077 5.83046584 19.42383077 5 22 C4.67 22.66 4.34 23.32 4 24 C3.89756724 25.39811767 3.85418574 26.80082223 3.84228516 28.20263672 C3.83202301 29.07048798 3.82176086 29.93833923 3.81118774 30.83248901 C3.80388641 31.77206451 3.79658508 32.71164001 3.7890625 33.6796875 C3.76099542 35.66016454 3.73233096 37.64063318 3.703125 39.62109375 C3.66183884 42.75048604 3.62496028 45.8797214 3.59863281 49.00927734 C3.57105086 52.02474516 3.52517993 55.03949535 3.4765625 58.0546875 C3.47330963 58.99021454 3.47005676 59.92574158 3.46670532 60.88961792 C3.34434199 67.34631063 3.34434199 67.34631063 1.64990234 70.56298828 C-0.8405797 72.7321178 -2.73374843 72.93467497 -6 73 C-10.56521739 70.86956522 -10.56521739 70.86956522 -12 68 C-12.10693436 65.95334098 -12.14887111 63.90317376 -12.16113281 61.85375977 C-12.17074036 60.56224503 -12.1803479 59.27073029 -12.19024658 57.94007874 C-12.19509381 56.52385636 -12.19937282 55.10763195 -12.203125 53.69140625 C-12.2088759 52.24413551 -12.21463364 50.7968648 -12.22039795 49.34959412 C-12.23090726 46.31403244 -12.23675058 43.27849724 -12.24023438 40.24291992 C-12.2457234 36.35099793 -12.26976002 32.45942504 -12.29820633 28.56761265 C-12.31681748 25.57792635 -12.32203745 22.58832447 -12.32357025 19.59858513 C-12.32660006 18.16363552 -12.33463967 16.7286875 -12.34775543 15.29379463 C-12.3647845 13.28781153 -12.36109543 11.28168476 -12.35644531 9.27563477 C-12.36009094 8.13361099 -12.36373657 6.99158722 -12.36749268 5.81495667 C-12 3 -12 3 -10.66522217 1.17027283 C-6.98759936 -1.41426041 -4.17481292 -1.19280369 0 0 Z " fill="#FDFDFD" transform="translate(796,119)"/>
	<path d="M0 0 C2.67431489 1.81163267 2.95920359 2.87761077 4 6 C4.10929292 8.48772432 4.16445441 10.94894537 4.17358398 13.43725586 C4.180271 14.19204727 4.18695801 14.94683868 4.19384766 15.72450256 C4.20789192 17.3630557 4.21978797 19.00162834 4.22979546 20.64021111 C4.24621124 23.23340319 4.26944872 25.82645066 4.29469299 28.41957092 C4.36545741 35.79225458 4.42561639 43.16499671 4.47680664 50.5378418 C4.50859718 55.04769884 4.54987081 59.55738852 4.59700203 64.06711006 C4.61301914 65.78587396 4.62534206 67.50467639 4.63390923 69.22349358 C4.64606287 71.62695186 4.67021203 74.03001651 4.69702148 76.43334961 C4.6979052 77.49874466 4.6979052 77.49874466 4.69880676 78.58566284 C4.75190176 82.17766321 4.87066236 85.02154832 7 88 C9.34024856 88.84368927 9.34024856 88.84368927 12 89.125 C16.81016949 89.81016949 16.81016949 89.81016949 19 92 C19.5412844 97.68348624 19.5412844 97.68348624 19 100 C16.79673263 102.29139806 15.37905808 102.94065522 12.23046875 103.43359375 C0.6254867 103.44849103 0.6254867 103.44849103 -4 99 C-9.66054492 91.98864323 -11.14794914 86.90238157 -11.16113281 77.97436523 C-11.16609772 77.16905365 -11.17106262 76.36374207 -11.17617798 75.5340271 C-11.19075976 72.87554059 -11.19759314 70.21711364 -11.203125 67.55859375 C-11.20887749 65.71061705 -11.21463521 63.86264036 -11.22039795 62.0146637 C-11.23089502 58.14364341 -11.23674689 54.27264384 -11.24023438 50.40161133 C-11.24573197 45.43585952 -11.26979227 40.47038014 -11.29820633 35.50471401 C-11.31680143 31.68979583 -11.32203652 27.87494389 -11.32357025 24.05998421 C-11.32660182 22.22870448 -11.33464724 20.39742605 -11.34775543 18.56619072 C-11.36475899 16.00932689 -11.36295043 13.45313723 -11.35644531 10.89624023 C-11.3656601 10.13719894 -11.37487488 9.37815765 -11.3843689 8.59611511 C-11.34349446 3.48259722 -11.34349446 3.48259722 -9.59881592 1.03138733 C-6.61608611 -0.89275521 -3.40567821 -0.53324815 0 0 Z " fill="#FDFDFD" transform="translate(418,88)"/>
	<path d="M0 0 C2.1385485 2.1385485 2.42655063 3.13275314 3 6 C3.66 5.401875 4.32 4.80375 5 4.1875 C13.25604634 -1.83253379 22.15589205 -1.97517232 32 -1 C34.93495951 0.0225877 36.555626 1.0445008 39 3 C39.125 6.375 39.125 6.375 39 10 C37 12 37 12 35.15576172 12.17944336 C34.05385498 12.13509155 34.05385498 12.13509155 32.9296875 12.08984375 C32.115 12.06986328 31.3003125 12.04988281 30.4609375 12.02929688 C28.76024209 11.96892476 27.0597027 11.90395128 25.359375 11.83398438 C18.29720369 11.67348048 13.14286114 12.95030795 7.125 16.875 C2.16572469 21.83427531 2.70627206 27.63362909 2.69140625 34.2265625 C2.66626232 36.24739892 2.64086408 38.26823218 2.61523438 40.2890625 C2.58641313 43.46678967 2.56238557 46.64446246 2.54370117 49.82226562 C2.52211368 52.89480641 2.48269872 55.96673279 2.44140625 59.0390625 C2.44129044 59.99221344 2.44117462 60.94536438 2.4410553 61.92739868 C2.42771652 62.81196747 2.41437775 63.69653625 2.40063477 64.60791016 C2.39556412 65.38558746 2.39049347 66.16326477 2.38526917 66.96450806 C1.90034223 69.52652175 1.03358865 70.41480517 -1 72 C-3.15625 72.46875 -3.15625 72.46875 -5.5 72.5 C-6.2734375 72.5309375 -7.046875 72.561875 -7.84375 72.59375 C-10 72 -10 72 -11.61050415 69.84912109 C-13.20680642 66.57594941 -13.38013086 64.44805276 -13.38818359 60.8203125 C-13.39764008 59.59554199 -13.40709656 58.37077148 -13.4168396 57.10888672 C-13.41076691 55.7942041 -13.40469421 54.47952148 -13.3984375 53.125 C-13.40046018 51.75406744 -13.40337324 50.38313593 -13.40713501 49.01220703 C-13.41154928 46.14410115 -13.40515663 43.27627625 -13.39111328 40.40820312 C-13.37402148 36.73956941 -13.38386754 33.0715942 -13.40183067 29.40298462 C-13.41269306 26.573599 -13.40921102 23.74436842 -13.4014473 20.91497803 C-13.39848474 18.90701874 -13.40756466 16.89905333 -13.4168396 14.89111328 C-13.40738312 13.66634277 -13.39792664 12.44157227 -13.38818359 11.1796875 C-13.38579681 10.10444824 -13.38341003 9.02920898 -13.38095093 7.92138672 C-12.94312602 4.56385226 -12.04848994 2.68035292 -10 0 C-6.25976024 -1.24674659 -3.83399823 -0.76679965 0 0 Z " fill="#FDFDFD" transform="translate(358,119)"/>
	<path d="M0 0 C2.77661248 2.77661248 2.25943041 4.44055562 2.2746582 8.32983398 C2.27976913 8.97879639 2.28488007 9.62775879 2.29014587 10.29638672 C2.30407115 12.4463823 2.30308292 14.59605837 2.30078125 16.74609375 C2.30466672 18.23820618 2.30900107 19.73031749 2.31376648 21.22242737 C2.32123508 24.35217878 2.32093293 27.4818174 2.31567383 30.61157227 C2.30987967 34.62458899 2.32680535 38.63714411 2.3500185 42.6500845 C2.36474302 45.73243413 2.36562929 48.81467229 2.36250877 51.89705086 C2.36302268 53.37664771 2.36827346 54.85625069 2.37832069 56.33581352 C2.39064297 58.40443874 2.38391985 60.47216097 2.37231445 62.54077148 C2.37294388 63.71832504 2.3735733 64.8958786 2.3742218 66.1091156 C2 69 2 69 0.5978241 70.87879944 C-2.33234658 72.93491376 -5.57792196 72.54296019 -9 72 C-11.17476401 70.45661909 -11.81832637 69.36334727 -13 67 C-13.1066325 65.05581064 -13.14884461 63.10796129 -13.16113281 61.16088867 C-13.17074036 59.93589157 -13.1803479 58.71089447 -13.19024658 57.44877625 C-13.19509493 56.10517564 -13.19937367 54.76157287 -13.203125 53.41796875 C-13.20887734 52.04275002 -13.21463507 50.66753131 -13.22039795 49.29231262 C-13.23090877 46.40637844 -13.23675058 43.52047212 -13.24023438 40.63452148 C-13.24571286 36.9423261 -13.26972623 33.25050066 -13.29820633 29.55842113 C-13.31686286 26.71620115 -13.32203995 23.87406963 -13.32357025 21.03179359 C-13.32659161 19.67106419 -13.33460273 18.31033616 -13.34775543 16.94966698 C-13.36487345 15.04228424 -13.36108255 13.13474884 -13.35644531 11.22729492 C-13.36191376 9.60086311 -13.36191376 9.60086311 -13.36749268 7.9415741 C-12.94557668 4.56437163 -12.06210927 2.69127444 -10 0 C-6.25976024 -1.24674659 -3.83399823 -0.76679965 0 0 Z " fill="#FDFDFD" transform="translate(463,119)"/>
	<path d="M0 0 C4.28523654 2.4600432 4.28523654 2.4600432 6 5 C6.79594091 8.17247371 6.7702233 10.82431009 6 14 C3.83878582 16.85838005 2.33308076 17.77465717 -1.1953125 18.37109375 C-4.98231241 18.57731652 -7.27879382 18.46878402 -10.5 16.375 C-12.37256368 13.41010751 -12.92967856 11.51607206 -13 8 C-11.8303301 4.79879817 -10.92407353 2.7010213 -8.1875 0.625 C-5.18223955 -0.23364584 -3.12169516 -0.43703732 0 0 Z " fill="#FDFDFD" transform="translate(461,89)"/>
</svg>
